<svg xmlns="http://www.w3.org/2000/svg" viewBox="0 0 300 300"><path d="M28.499 1.844c-8.847 0-17.767 1.128-26.528 3.353v34.378c0 5.05 1.676 9.302 5.123 12.996 6.158 6.596 13.418 12.199 21.586 16.653 8.118-3.974 15.457-9.6 21.82-16.728 3.256-3.646 4.837-7.797 4.837-12.683V5.201C46.375 2.973 37.35 1.844 28.498 1.844" style="display:inline;opacity:1;fill:#dee3db;fill-opacity:1;stroke:none;stroke-width:7.9375;stroke-linecap:round" transform="translate(65.868 60.715)scale(2.93611)"/><path d="M28.68 1.845v67.379c8.118-3.974 15.457-9.6 21.82-16.728 3.256-3.646 4.837-7.797 4.837-12.683V5.201c-8.9-2.213-17.864-3.34-26.657-3.356" style="display:inline;opacity:1;fill:#bec8b7;fill-opacity:1;stroke:none;stroke-width:7.9375;stroke-linecap:round" transform="translate(65.868 60.715)scale(2.93611)"/><path d="M28.629 7.007v11.807h.165v1.665h-.165v32.78c.59-.553 1.214-1.269 1.874-2.167l.656.57q-.988 1.794-2.53 2.954v9.555l.026.014c6.99-3.356 13.179-8.081 18.584-14.14 2.806-3.142 4.188-6.765 4.188-10.98V9.948c-7.6-1.941-15.198-2.931-22.798-2.94" style="clip-rule:evenodd;display:inline;fill:#045;fill-opacity:1;fill-rule:evenodd;stroke-width:.79375" transform="translate(65.868 60.715)scale(2.93611)"/><path d="M28.528 54.695v-1.339a7 7 0 0 1-.916.714q-1.313.789-3.285.789a7.05 7.05 0 0 1-2.934-.614q-1.358-.613-2.19-1.708-1.577-1.97-1.577-6.569v-25.49h10.902v-1.664H17.626V7.427h-1.62l-.438 1.446q-.788 2.54-1.664 4.16-.876 1.577-2.321 3.198-2.409 2.627-5.256 3.547v.7h4.686V47.02q0 3.81.395 5.3.394 1.444 1.664 2.496 2.364 2.015 7.533 2.015 3.898 0 6.481-1.27a9.3 9.3 0 0 0 1.442-.865" style="clip-rule:evenodd;display:inline;fill:#045;fill-rule:evenodd;stroke-width:.79375" transform="translate(65.868 60.715)scale(2.93611)"/></svg>