<svg xmlns="http://www.w3.org/2000/svg" viewBox="0 0 300 300"><path fill="#dee3db" d="M149.45 45.793c-31.316 0-62.89 3.992-93.9 11.868v121.69c0 17.878 5.931 32.926 18.13 46.003 21.8 23.348 47.499 43.181 76.41 58.946 28.735-14.065 54.713-33.98 77.24-59.212 11.523-12.907 17.12-27.598 17.12-44.894h-.003V57.675c-31.718-7.887-63.666-11.882-94.997-11.882"/><path fill="#bec8b7" d="M150.09 45.798V284.3c28.735-14.065 54.713-33.98 77.24-59.212 11.523-12.907 17.12-27.598 17.12-44.894h-.003V57.675c-31.503-7.833-63.23-11.823-94.356-11.877"/><path fill="#045" fill-rule="evenodd" d="M149.91 64.068v41.796h.585v5.892h-.586v116.03c2.091-1.955 4.298-4.489 6.633-7.668l2.325 2.016c-2.331 4.239-5.323 7.718-8.958 10.46v33.82l.094.051c24.742-11.88 46.648-28.606 65.782-50.053 9.932-11.123 14.824-23.946 14.824-38.863V74.476c-26.898-6.872-53.796-10.377-80.7-10.408M149.552 232.871v-4.737c-1.115 1.013-2.198 1.865-3.242 2.526q-4.65 2.79-11.626 2.791-5.581 0-10.387-2.17-4.806-2.172-7.752-6.046-5.58-6.976-5.58-23.253v-90.226h38.587v-5.892h-38.588V65.557h-5.736l-1.55 5.116q-2.79 8.992-5.891 14.727-3.1 5.581-8.215 11.318-8.528 9.301-18.605 12.557v2.48h16.589v93.947q0 13.487 1.395 18.757 1.395 5.115 5.89 8.837 8.373 7.132 26.665 7.132 13.797 0 22.944-4.496a32.7 32.7 0 0 0 5.102-3.06" clip-rule="evenodd"/></svg>